<?xml version="1.0" encoding="UTF-8"?>
<svg xmlns="http://www.w3.org/2000/svg" xmlns:xlink="http://www.w3.org/1999/xlink" width="150px" height="80px" viewBox="0 0 2400 1680">
<path fill-rule="nonzero" fill="#00FFA7" fill-opacity="1" d="M 1705.589844 315.039062 L 1682.910156 582.960938 L 1678.070312 593.070312 L 1452.671875 809.960938 L 1448.699219 812.75 L 1393.75 839.9375 L 1375.039062 933.484375 L 1372.75 939.066406 L 1297.898438 1053.382812 L 1321.359375 1261.777344 L 1292.210938 1271.949219 L 1207.160156 1137.277344 L 1204.738281 1129.527344 L 1200 1022.871094 L 1200 998.6875 L 1201.800781 992.394531 L 1293.941406 856.304688 L 1300.019531 850.972656 L 1432.488281 785.433594 L 1651.78125 574.421875 L 1673.960938 312.441406 Z M 1357.820312 857.714844 L 1317.738281 877.542969 L 1230.929688 1005.761719 L 1236.179688 1123.941406 L 1282.140625 1196.710938 L 1265.761719 1051.195312 L 1268.238281 1040.777344 L 1344.511719 924.292969 L 1357.820312 857.714844 "/>
<path fill="none" stroke-width="2.16" stroke-linecap="butt" stroke-linejoin="miter" stroke="#00FFA7" stroke-opacity="1" stroke-miterlimit="2.61313" d="M 17055.898438 13649.609375 L 16829.101562 10970.390625 L 16780.703125 10869.296875 L 14526.71875 8700.390625 L 14486.992188 8672.5 L 13937.5 8400.625 L 13750.390625 7465.15625 L 13727.5 7409.335938 L 12978.984375 6266.171875 L 13213.59375 4182.226562 L 12922.109375 4080.507812 L 12071.601562 5427.226562 L 12047.382812 5504.726562 L 12000 6571.289062 L 12000 6813.125 L 12018.007812 6876.054688 L 12939.414062 8236.953125 L 13000.195312 8290.273438 L 14324.882812 8945.664062 L 16517.8125 11055.78125 L 16739.609375 13675.585938 Z M 13578.203125 8222.851562 L 13177.382812 8024.570312 L 12309.296875 6742.382812 L 12361.796875 5560.585938 L 12821.40625 4832.890625 L 12657.617188 6288.046875 L 12682.382812 6392.226562 L 13445.117188 7557.070312 Z M 13578.203125 8222.851562 " transform="matrix(0.1, 0, 0, -0.1, 0, 1680)"/>
<path fill-rule="nonzero" fill="#00FFA7" fill-opacity="1" d="M 1287.351562 1208.539062 L 1371.429688 1098.273438 L 1395.738281 947.859375 L 1485.089844 952.480469 L 1587.441406 849.953125 L 1633.449219 752.847656 L 1544.460938 785.117188 L 1462.230469 878.914062 L 1472.488281 913.097656 L 1442.101562 922.152344 L 1426.828125 871.28125 L 1523.351562 761.195312 L 1529.859375 756.730469 L 1658.859375 709.949219 L 1678.578125 731.59375 L 1614.921875 865.945312 L 1611.820312 870.347656 L 1497.53125 984.835938 L 1422.449219 980.953125 L 1402.039062 1107.226562 L 1399 1114.359375 L 1312.53125 1227.765625 L 1287.351562 1208.539062 "/>
<path fill="none" stroke-width="2.16" stroke-linecap="butt" stroke-linejoin="miter" stroke="#00FFA7" stroke-opacity="1" stroke-miterlimit="2.61313" d="M 12873.515625 4714.609375 L 13714.296875 5817.265625 L 13957.382812 7321.40625 L 14850.898438 7275.195312 L 15874.414062 8300.46875 L 16334.492188 9271.523438 L 15444.609375 8948.828125 L 14622.304688 8010.859375 L 14724.882812 7669.023438 L 14421.015625 7578.476562 L 14268.28125 8087.1875 L 15233.515625 9188.046875 L 15298.59375 9232.695312 L 16588.59375 9700.507812 L 16785.78125 9484.0625 L 16149.21875 8140.546875 L 16118.203125 8096.523438 L 14975.3125 6951.640625 L 14224.492188 6990.46875 L 14020.390625 5727.734375 L 13990 5656.40625 L 13125.3125 4522.34375 Z M 12873.515625 4714.609375 " transform="matrix(0.1, 0, 0, -0.1, 0, 1680)"/>
<path fill-rule="nonzero" fill="#00FFA7" fill-opacity="1" d="M 1200 1149.144531 L 1258.820312 1243.800781 L 1260.371094 1247.148438 L 1283.519531 1315.726562 L 1200 1367.566406 L 1200 1330.253906 L 1245.480469 1302.023438 L 1230.980469 1259.066406 L 1200 1209.203125 L 1200 1149.144531 "/>
<path fill="none" stroke-width="2.16" stroke-linecap="butt" stroke-linejoin="miter" stroke="#00FFA7" stroke-opacity="1" stroke-miterlimit="2.61313" d="M 12000 5308.554688 L 12588.203125 4361.992188 L 12603.710938 4328.515625 L 12835.195312 3642.734375 L 12000 3124.335938 L 12000 3497.460938 L 12454.804688 3779.765625 L 12309.804688 4209.335938 L 12000 4707.96875 Z M 12000 5308.554688 " transform="matrix(0.1, 0, 0, -0.1, 0, 1680)"/>
<path fill-rule="nonzero" fill="#00FFA7" fill-opacity="1" d="M 1509.179688 421.089844 L 1570.140625 550.089844 L 1571.378906 559.890625 L 1538.769531 724.328125 L 1507.640625 718.25 L 1539.238281 558.871094 L 1480.53125 434.609375 L 1509.179688 421.089844 "/>
<path fill="none" stroke-width="2.16" stroke-linecap="butt" stroke-linejoin="miter" stroke="#00FFA7" stroke-opacity="1" stroke-miterlimit="2.61313" d="M 15091.796875 12589.101562 L 15701.40625 11299.101562 L 15713.789062 11201.09375 L 15387.695312 9556.71875 L 15076.40625 9617.5 L 15392.382812 11211.289062 L 14805.3125 12453.90625 Z M 15091.796875 12589.101562 " transform="matrix(0.1, 0, 0, -0.1, 0, 1680)"/>
<path fill-rule="nonzero" fill="#00FFA7" fill-opacity="1" d="M 1367.550781 820.867188 L 1412.910156 645.089844 L 1443.550781 652.898438 L 1398.191406 828.679688 L 1367.550781 820.867188 "/>
<path fill="none" stroke-width="2.16" stroke-linecap="butt" stroke-linejoin="miter" stroke="#00FFA7" stroke-opacity="1" stroke-miterlimit="2.61313" d="M 13675.507812 8591.328125 L 14129.101562 10349.101562 L 14435.507812 10271.015625 L 13981.914062 8513.203125 Z M 13675.507812 8591.328125 " transform="matrix(0.1, 0, 0, -0.1, 0, 1680)"/>
<path fill-rule="nonzero" fill="#00FFA7" fill-opacity="1" d="M 694.410156 315.039062 L 717.09375 582.960938 L 721.929688 593.070312 L 947.324219 809.960938 L 951.296875 812.75 L 1006.25 839.9375 L 1024.960938 933.484375 L 1027.25 939.066406 L 1102.101562 1053.382812 L 1078.640625 1261.777344 L 1107.789062 1271.949219 L 1192.839844 1137.277344 L 1195.261719 1129.527344 L 1200 1022.871094 L 1200 998.6875 L 1198.199219 992.394531 L 1106.058594 856.304688 L 1099.980469 850.972656 L 967.511719 785.433594 L 748.222656 574.421875 L 726.042969 312.441406 Z M 1042.179688 857.714844 L 1082.261719 877.542969 L 1169.070312 1005.761719 L 1163.820312 1123.941406 L 1117.859375 1196.710938 L 1134.238281 1051.195312 L 1131.761719 1040.777344 L 1055.488281 924.292969 L 1042.179688 857.714844 "/>
<path fill="none" stroke-width="2.16" stroke-linecap="butt" stroke-linejoin="miter" stroke="#00FFA7" stroke-opacity="1" stroke-miterlimit="2.61313" d="M 6944.101562 13649.609375 L 7170.9375 10970.390625 L 7219.296875 10869.296875 L 9473.242188 8700.390625 L 9512.96875 8672.5 L 10062.5 8400.625 L 10249.609375 7465.15625 L 10272.5 7409.335938 L 11021.015625 6266.171875 L 10786.40625 4182.226562 L 11077.890625 4080.507812 L 11928.398438 5427.226562 L 11952.617188 5504.726562 L 12000 6571.289062 L 12000 6813.125 L 11981.992188 6876.054688 L 11060.585938 8236.953125 L 10999.804688 8290.273438 L 9675.117188 8945.664062 L 7482.226562 11055.78125 L 7260.429688 13675.585938 Z M 10421.796875 8222.851562 L 10822.617188 8024.570312 L 11690.703125 6742.382812 L 11638.203125 5560.585938 L 11178.59375 4832.890625 L 11342.382812 6288.046875 L 11317.617188 6392.226562 L 10554.882812 7557.070312 Z M 10421.796875 8222.851562 " transform="matrix(0.1, 0, 0, -0.1, 0, 1680)"/>
<path fill-rule="nonzero" fill="#00FFA7" fill-opacity="1" d="M 1112.648438 1208.539062 L 1028.570312 1098.273438 L 1004.261719 947.859375 L 914.90625 952.480469 L 812.5625 849.953125 L 766.546875 752.847656 L 855.539062 785.117188 L 937.769531 878.914062 L 927.515625 913.097656 L 957.902344 922.152344 L 973.164062 871.28125 L 876.652344 761.195312 L 870.140625 756.730469 L 741.140625 709.949219 L 721.417969 731.59375 L 785.078125 865.945312 L 788.179688 870.347656 L 902.46875 984.835938 L 977.550781 980.953125 L 997.960938 1107.226562 L 1001 1114.359375 L 1087.46875 1227.765625 L 1112.648438 1208.539062 "/>
<path fill="none" stroke-width="2.16" stroke-linecap="butt" stroke-linejoin="miter" stroke="#00FFA7" stroke-opacity="1" stroke-miterlimit="2.61313" d="M 11126.484375 4714.609375 L 10285.703125 5817.265625 L 10042.617188 7321.40625 L 9149.0625 7275.195312 L 8125.625 8300.46875 L 7665.46875 9271.523438 L 8555.390625 8948.828125 L 9377.695312 8010.859375 L 9275.15625 7669.023438 L 9579.023438 7578.476562 L 9731.640625 8087.1875 L 8766.523438 9188.046875 L 8701.40625 9232.695312 L 7411.40625 9700.507812 L 7214.179688 9484.0625 L 7850.78125 8140.546875 L 7881.796875 8096.523438 L 9024.6875 6951.640625 L 9775.507812 6990.46875 L 9979.609375 5727.734375 L 10010 5656.40625 L 10874.6875 4522.34375 Z M 11126.484375 4714.609375 " transform="matrix(0.1, 0, 0, -0.1, 0, 1680)"/>
<path fill-rule="nonzero" fill="#00FFA7" fill-opacity="1" d="M 1200 1149.144531 L 1141.179688 1243.800781 L 1139.628906 1247.148438 L 1116.480469 1315.726562 L 1200 1367.566406 L 1200 1330.253906 L 1154.519531 1302.023438 L 1169.019531 1259.066406 L 1200 1209.203125 L 1200 1149.144531 "/>
<path fill="none" stroke-width="2.16" stroke-linecap="butt" stroke-linejoin="miter" stroke="#00FFA7" stroke-opacity="1" stroke-miterlimit="2.61313" d="M 12000 5308.554688 L 11411.796875 4361.992188 L 11396.289062 4328.515625 L 11164.804688 3642.734375 L 12000 3124.335938 L 12000 3497.460938 L 11545.195312 3779.765625 L 11690.195312 4209.335938 L 12000 4707.96875 Z M 12000 5308.554688 " transform="matrix(0.1, 0, 0, -0.1, 0, 1680)"/>
<path fill-rule="nonzero" fill="#00FFA7" fill-opacity="1" d="M 890.816406 421.089844 L 829.863281 550.089844 L 828.621094 559.890625 L 861.226562 724.328125 L 892.359375 718.25 L 860.757812 558.871094 L 919.472656 434.609375 L 890.816406 421.089844 "/>
<path fill="none" stroke-width="2.16" stroke-linecap="butt" stroke-linejoin="miter" stroke="#00FFA7" stroke-opacity="1" stroke-miterlimit="2.61313" d="M 8908.164062 12589.101562 L 8298.632812 11299.101562 L 8286.210938 11201.09375 L 8612.265625 9556.71875 L 8923.59375 9617.5 L 8607.578125 11211.289062 L 9194.726562 12453.90625 Z M 8908.164062 12589.101562 " transform="matrix(0.1, 0, 0, -0.1, 0, 1680)"/>
<path fill-rule="nonzero" fill="#00FFA7" fill-opacity="1" d="M 1032.449219 820.867188 L 987.089844 645.089844 L 956.453125 652.898438 L 1001.808594 828.679688 L 1032.449219 820.867188 "/>
<path fill="none" stroke-width="2.16" stroke-linecap="butt" stroke-linejoin="miter" stroke="#00FFA7" stroke-opacity="1" stroke-miterlimit="2.61313" d="M 10324.492188 8591.328125 L 9870.898438 10349.101562 L 9564.53125 10271.015625 L 10018.085938 8513.203125 Z M 10324.492188 8591.328125 " transform="matrix(0.1, 0, 0, -0.1, 0, 1680)"/>
<path fill-rule="nonzero" fill="#00FFA7" fill-opacity="1" d="M 1028.550781 822.730469 L 1194.761719 787.292969 L 1201.339844 787.292969 L 1367.191406 822.730469 L 1360.621094 853.742188 L 1198.039062 819.003906 L 1035.128906 853.742188 L 1028.550781 822.730469 "/>
<path fill="none" stroke-width="2.16" stroke-linecap="butt" stroke-linejoin="miter" stroke="#00FFA7" stroke-opacity="1" stroke-miterlimit="2.61313" d="M 10285.507812 8572.695312 L 11947.617188 8927.070312 L 12013.398438 8927.070312 L 13671.914062 8572.695312 L 13606.210938 8262.578125 L 11980.390625 8609.960938 L 10351.289062 8262.578125 Z M 10285.507812 8572.695312 " transform="matrix(0.1, 0, 0, -0.1, 0, 1680)"/>
</svg>
